PathFileType	4	(X/Y/Z)	T1_P2_NoVision_NoMovement_0_0-723.trc
DataRate	CameraRate	NumFrames	NumMarkers	Units	OrigDataRate	OrigDataStartFrame	OrigNumFrames
60	60	4	27	m	60	542	723
Frame#	Time	RHip			RKnee			RAnkle			RBigToe			RSmallToe			RHeel			LHip			LKnee			LAnkle			LBigToe			LSmallToe			LHeel			Neck			Head			Nose			RShoulder			RElbow			RWrist			RThumb			RIndex			RPinky			LShoulder			LElbow			LWrist			LThumb			LIndex			LPinky		
		X1	Y1	Z1	X2	Y2	Z2	X3	Y3	Z3	X4	Y4	Z4	X5	Y5	Z5	X6	Y6	Z6	X7	Y7	Z7	X8	Y8	Z8	X9	Y9	Z9	X10	Y10	Z10	X11	Y11	Z11	X12	Y12	Z12	X13	Y13	Z13	X14	Y14	Z14	X15	Y15	Z15	X16	Y16	Z16	X17	Y17	Z17	X18	Y18	Z18	X19	Y19	Z19	X20	Y20	Z20	X21	Y21	Z21	X22	Y22	Z22	X23	Y23	Z23	X24	Y24	Z24	X25	Y25	Z25	X26	Y26	Z26	X27	Y27	Z27
543	9.05	470.0768679430221	3609.6356149786675	529.4569922077553	850.5895493601993	3673.9338207617607	538.9500448844897	1255.920569132658	3783.510445390599	624.6847609906	1316.7668337519042	3609.773145778972	550.1131236529563	1317.5054849156218	3697.508313301693	520.429200537639	1297.055850192434	3777.986105147495	633.3028776568527	462.1427784568261	3501.7947275350934	732.186871370446	864.682143951322	3523.020923219751	730.5626272459573	1232.9223566358662	3596.362088843509	725.7457362353161	1318.022876286546	3513.572160256728	675.3636402926902	1277.8015044070808	3455.8976809513233	715.9905626879973	1269.070919678756	3616.6121869351205	716.6110196551614	-103.58296824146073	3538.008618078027	635.3226564357709	-355.39075282201685	3431.9915256195623	574.5967936699809	-207.948085295048	3426.4676722376253	560.5801358696417	-27.16031628885192	3670.3222605849614	519.2788127584602	198.59818443257893	3691.6556977601444	428.98312785612467	440.081813823084	3639.0302734617367	399.79775151539894	555.3895718795809	3554.192201501041	410.1174907572478	577.2804752894089	3548.115931490734	394.0126653937081	579.2345330418399	3641.0014193213087	396.9044697666427	-28.92299820756609	3511.0853651018974	810.130753541662	215.7371203181872	3419.4422787136136	837.4947911272942	455.54244588806114	3393.3283865559747	805.5750825528438	545.735068046178	3365.499709900197	706.9380243068429	581.9386438196201	3396.4416120861747	775.2224228136187	569.945103612006	3308.0238951836263	788.0777497618809
544	9.066666666666666	469.99037802045444	3610.018624803421	529.6199822925353	856.814221797527	3678.7168727676967	540.3267106471974	1271.215466557869	3783.3451502355915	623.969058063025	1318.092333321314	3610.1978547905387	555.6900642113235	1310.5803989563246	3675.2035514367344	519.9600136271624	1299.9583650511684	3771.628263555486	629.9190369206495	462.0358695985597	3502.0181795926424	732.3165368640732	876.2161406331048	3542.40843187758	745.2655968650727	1239.646730846707	3600.2793882713154	726.489017305216	1318.8776506231366	3517.098051689843	672.1134095236431	1280.315802702244	3451.0533675025963	713.0930805153054	1269.5067979326425	3615.9584558444044	715.9245892853705	-107.90531855106526	3536.6308466980663	634.8066447991506	-356.20553245683345	3446.0965001447184	586.8974516106812	-208.05096903804628	3426.307164779491	560.7002934584417	-27.13184407289243	3670.568714388711	519.4107678993439	194.48986486067307	3695.903654065974	430.9509246695529	436.474184523396	3643.526298747052	401.884614185	554.9219615990252	3553.7941595289767	410.05825653363104	572.0833374006564	3543.8391187932866	392.9704155499427	570.5038484072224	3619.1855445378173	391.4779805110318	-28.961570382678083	3511.0553512887977	810.1298236460403	211.76749175686163	3423.2790156113815	839.8701532993891	455.4705481954713	3393.475251750186	805.6187366645328	542.5469074099558	3369.660723334659	709.5495323109477	585.6999506835539	3398.352782875542	776.6239745501607	566.202238215791	3312.3536144785708	790.8282578941008
545	9.083333333333334	469.96407742533796	3610.2100350548076	529.6385816043933	856.923459717258	3678.7481070815675	540.4525399321309	1260.5362842636898	3771.913433669641	613.5706980542689	1321.6088588240227	3611.3560769199507	551.6261537068776	1315.7641718407247	3677.5832655276026	517.1530691575832	1299.323671264299	3768.41804905702	634.4514047072423	462.02862496729074	3501.978564643491	732.3238093365542	876.2785348124071	3542.388589004034	745.5599539391718	1232.6834520312254	3593.5295482645543	729.6855932528105	1318.024452045929	3513.5218773066654	675.4458591089264	1277.8853257195974	3455.812962957691	715.9084168148447	1269.0470404469168	3616.1007271652998	716.3788423951861	-107.88848439573351	3536.553570287555	634.8028470516354	-356.0935232685933	3446.022045098802	586.8735056424249	-208.0100359811495	3411.958057777571	548.4319835153085	-27.20362986615386	3670.4862384392673	519.4306989178547	199.03871279421065	3699.7632878232753	432.023819028674	436.4519936750277	3643.737499171804	401.89253929320626	551.5044648449015	3557.7974922340863	412.05487137101426	571.784673780072	3543.4000447476697	392.864619052051	570.4343033849312	3619.6541011555732	391.6049983059428	-28.945997087649076	3510.9882437779756	810.1685540533339	215.78888749453554	3419.357169443194	837.4631468917953	455.466166320362	3393.4107101853315	805.5779332307532	545.8748538242661	3365.230506731774	711.7802797336145	581.7644836201246	3397.052152692669	775.6213978765422	566.1689845554199	3312.175577864456	790.8178573409468
546	9.1	467.89078302401634	3622.2463546031663	541.1451812516912	856.9452593600527	3678.536797995334	540.5007686308527	1260.7920563626417	3767.286931962477	621.4265901058682	1316.8900079504663	3609.6882750818754	550.1292592772002	1317.4983357527972	3679.0088353952237	521.1589644109592	1299.393549972687	3767.9843979341176	634.1849612560949	461.89714873328734	3502.2406914843764	732.4655594373372	870.0232054897523	3537.5219507035795	743.9656394046132	1242.2573372625548	3595.123622530869	723.7366626960426	1317.8612835204028	3513.23774520118	675.5470928448345	1280.2464653111715	3450.792661565308	713.0047229192181	1269.462151804051	3615.5884224236725	715.7945528348805	-103.58226815913667	3537.829564362208	635.3551858043135	-355.32029264164527	3431.915482206931	574.6762949288575	-207.92335255453006	3426.28088423427	560.7428121056919	-31.396624537858106	3674.481466824251	521.4533105730941	194.5094841492666	3696.0264853583376	431.0137355220573	440.04131194622863	3639.354077419227	399.8698113706034	551.4614337303137	3557.557735039613	412.04681618120384	571.6273533579155	3543.1275689097292	392.84783580261876	570.4079324811381	3619.550528769264	391.619989984354	-28.912042099549662	3510.882516092734	810.1988886295871	221.0566813487193	3422.7848413952943	839.0074109350344	455.55238950409705	3393.4476911548154	805.6421115573659	546.1411123181441	3364.8999050246916	711.6845843106373	586.3293321237467	3397.513448174344	782.1665022189189	569.9559141664981	3308.228554650857	788.3606776852811
